<svg xmlns="http://www.w3.org/2000/svg" xmlns:xlink="http://www.w3.org/1999/xlink" version="1.1" x="0px" y="0px" viewBox="0 0 64 80" style="enable-background:new 0 0 64 64;" xml:space="preserve"><g><ellipse transform="matrix(0.9999 -1.727102e-02 1.727102e-02 0.9999 -0.3698 0.8659)" cx="49.9" cy="21.8" rx="1.2" ry="1.2"/><path d="M50.2,8.1l-0.2,0c-2,0.1-3.7,1.3-4.3,3c-0.2,0.7,0.1,1.4,0.8,1.6c0.7,0.2,1.4-0.1,1.6-0.8c0.3-0.8,1-1.3,2.1-1.3   c0.9,0,1.5,0.3,1.8,0.7c0.1,0.1,0.3,0.4-0.2,0.9c-0.3,0.4-0.7,0.7-1.2,1c-0.6,0.4-1.3,0.9-1.7,1.7c-0.4,0.9-0.4,2.1-0.3,3.1   c0.1,0.7,0.6,1.2,1.2,1.2c0,0,0.1,0,0.1,0c0.7-0.1,1.2-0.7,1.1-1.3c0-0.3-0.1-1.4,0.1-1.8c0.1-0.2,0.5-0.5,0.9-0.8   c0.5-0.4,1.2-0.8,1.7-1.5c1-1.3,1.1-2.7,0.3-3.9C53.4,8.7,51.9,8.1,50.2,8.1z"/><path d="M38,61.2c1.7,0,3.1-1.4,3.1-3.1c0-1.6,0-3.7,0-3.9l0-0.4c0-1.3,0.1-2.9-0.5-4.2c-0.7-1.5-2.1-2.6-3.3-3.6   c-0.4-0.3-0.8-0.6-1.4-0.9l-1.6-0.9c-0.4-0.2-0.9-0.5-1.4-0.7l-0.5-0.3c-0.5-0.2-1-0.5-1.4-0.7c-0.7-0.3-1.3-0.6-1.9-0.7l-1-0.3   l-0.5,0.7c-0.4,0.5-3.5,3.5-6.5,6.3c-3.1-2.8-6.2-5.8-6.5-6.3L14,41.3l-1,0.4c-0.6,0.2-1.2,0.4-1.9,0.7c-0.5,0.2-1,0.5-1.5,0.8   L9,43.4c-0.2,0.1-0.3,0.2-0.5,0.3l-1.7,0.9c-0.8,0.5-1.4,0.9-2,1.3c-1.2,0.9-2.6,2-3.3,3.6C0.9,50.9,1,52.4,1,53.7l0,0.5   c0,0.2,0,2.3,0,3.8c0,1.7,1.4,3.1,3.1,3.1L38,61.2z M3.5,58.1c0-3.8,0-3.9,0-3.9l0-0.5c0-1.1-0.1-2.3,0.3-3.1   c0.4-1,1.5-1.8,2.5-2.6c0.5-0.4,1.1-0.8,1.8-1.2l1.6-0.9c0.1-0.1,0.3-0.1,0.4-0.2l0.6-0.3c0.5-0.2,0.9-0.5,1.4-0.7   c0.3-0.2,0.7-0.3,1-0.4c1.6,1.7,5.3,5.1,7.1,6.7l0.8,0.8l0.8-0.8c1.8-1.6,5.5-5.1,7.1-6.7c0.3,0.1,0.6,0.2,1,0.4   c0.5,0.2,0.9,0.4,1.3,0.7l0.5,0.3c0.5,0.3,0.9,0.5,1.3,0.7l1.5,0.9c0.4,0.3,0.8,0.5,1.2,0.8c1,0.8,2.1,1.6,2.5,2.6   c0.4,0.8,0.3,2,0.3,3.1l0,0.5c0,0.1,0,2.3,0,3.9c0,0.3-0.3,0.6-0.6,0.6l-33.8,0C3.8,58.7,3.5,58.4,3.5,58.1z"/><path d="M26.1,35.2c-0.4,0.7-0.8,1.3-1.3,1.9c-0.4,0.6-0.5,1.3-0.1,1.9c0.4,0.6,1.1,0.9,1.8,0.7c1.2-0.3,2.2-0.6,3.3-1.1   c1.5-0.7,2.9-1.5,4-2.6c0.7-0.7,1.4-1.5,1.9-2.4c0.4-0.7,0.4-1.6,0-2.3l-0.2-0.3c-0.4-0.6-0.8-1.3-1.2-1.9c-0.5-0.9-0.9-1.9-1-3.2   c-0.6-4.5-2.8-7.7-6.4-9.3c-2-0.9-4.2-1.2-6.8-1c-4.4,0.4-7.5,2.5-9.2,6.3c-0.4,0.9-0.7,1.8-0.9,2.7c-0.2,0.8-0.5,1.5-0.8,2.3   c-0.5,1.1-1.2,2.2-1.9,3.3C7,30.6,6.8,31,6.6,31.4c-0.5,0.8-0.5,1.8,0,2.5c0.7,1.1,1.6,2.1,2.6,2.9c1.1,0.9,2.4,1.7,4,2.3   c0.5,0.2,1.1,0.4,1.7,0.5c0.6,0.2,1.2,0.3,1.6,0.4c0.1,0,0.2,0,0.3,0c0.5,0,1-0.3,1.2-0.8c0.4-0.5,0.4-1.1,0-1.6l-0.1-0.1   c-0.2-0.2-0.5-0.5-0.6-0.8L17,36.5c-1.5-2-2.2-4.6-2.2-7.3c0-0.3,0.9-0.4,1-0.4c1.6-0.2,3.2-0.6,4.5-0.9l1-0.2   c1.7-0.4,3.7-0.9,5.3-1.7c0.1,0,0.2-0.1,0.3-0.2c0.6,1.4,0.8,3,0.7,4.6C27.4,32.1,26.9,33.7,26.1,35.2z M25.6,23.5   c-0.1,0-0.2,0.1-0.2,0.1c-1.4,0.7-3.1,1.1-4.7,1.5l-1,0.2c-1.2,0.3-2.7,0.7-4.2,0.9c-2.8,0.4-3.1,2.1-3.1,2.9   c0,2.7,0.6,5.4,1.9,7.6c0,0-0.1,0-0.1,0c-1.3-0.5-2.4-1.1-3.3-1.9c-0.8-0.6-1.4-1.4-2-2.2c0.2-0.3,0.4-0.7,0.6-1   c0.7-1.2,1.5-2.4,2.1-3.7c0.4-0.8,0.6-1.7,0.9-2.5c0.3-0.8,0.5-1.6,0.8-2.4c1.3-2.9,3.6-4.5,7.1-4.9c2.1-0.2,4,0.1,5.5,0.8   c2.8,1.3,4.4,3.7,4.9,7.4c0.2,1.6,0.7,2.9,1.4,4.1c0.4,0.7,0.8,1.4,1.3,2l0.1,0.2c-0.4,0.6-0.9,1.2-1.4,1.7c-0.9,0.9-2,1.6-3.3,2.1   c-0.2,0.1-0.4,0.2-0.6,0.2c0-0.1,0.1-0.2,0.1-0.2c1-1.9,1.6-3.8,1.7-6c0.1-2.3-0.3-4.5-1.2-6.4c-0.3-0.7-0.8-0.9-1.2-1   C26.8,22.8,26.1,23.2,25.6,23.5z"/><path d="M29,53.8h1.6v1.6c0,0.7,0.6,1.3,1.3,1.3s1.3-0.6,1.3-1.3v-1.6h1.6c0.7,0,1.3-0.6,1.3-1.3s-0.6-1.3-1.3-1.3h-1.6v-1.6   c0-0.7-0.6-1.3-1.3-1.3s-1.3,0.6-1.3,1.3v1.6H29c-0.7,0-1.3,0.6-1.3,1.3S28.3,53.8,29,53.8z"/><path d="M54.9,3.7c-4.2-1.6-8.9-1-12.4,1.8c-1.9,1.4-3.3,3.3-4.1,5.5c-1.1,2.9-1.2,6.1-0.1,9.1l-1.8,1.1c-0.9,0.5-0.9,1.3-0.9,1.7   c0.1,0.8,0.7,1.5,1.8,1.9l0.1,0c1,0.4,1.9,0.6,2.7,0.7l0.2,0c0.2,0,0.3,0,0.5,0.1c0.5,0,0.9,0,1.4,0c1,0.8,2.1,1.5,3.3,1.9   c1.5,0.6,3.1,0.9,4.7,0.9c2.8,0,5.5-0.9,7.8-2.7c1.9-1.4,3.3-3.3,4.1-5.5c1.2-3.2,1.2-6.7-0.2-9.8C60.5,7.3,58,4.9,54.9,3.7z    M59.8,19.4c-0.7,1.8-1.8,3.3-3.3,4.4c-2.9,2.2-6.6,2.7-10,1.4c-1-0.4-2-1-2.8-1.6l-0.6-0.5l-0.8,0l-0.2,0c-0.4,0-0.8,0-1.2,0   c-0.1,0-0.3,0-0.4,0l-0.2,0c-0.5-0.1-1.1-0.2-1.7-0.4l0.8-0.5c0.2-0.1,0.3-0.2,0.4-0.3l1.3-0.9l-0.6-1.5c-1-2.4-1-5.1,0-7.6   c0.7-1.8,1.8-3.3,3.3-4.4c2.9-2.2,6.6-2.7,10-1.4c2.6,1,4.6,2.9,5.7,5.5C60.7,14,60.8,16.8,59.8,19.4z"/></g><text x="0" y="79" fill="#000000" font-size="5px" font-weight="bold" font-family="'Helvetica Neue', Helvetica, Arial-Unicode, Arial, Sans-serif">Created by Delwar Hossain</text><text x="0" y="84" fill="#000000" font-size="5px" font-weight="bold" font-family="'Helvetica Neue', Helvetica, Arial-Unicode, Arial, Sans-serif">from the Noun Project</text></svg>