<svg xmlns="http://www.w3.org/2000/svg" xmlns:xlink="http://www.w3.org/1999/xlink" xml:space="preserve" version="1.1" style="shape-rendering:geometricPrecision;text-rendering:geometricPrecision;image-rendering:optimizeQuality;" viewBox="0 0 278 347.5" x="0px" y="0px" fill-rule="evenodd" clip-rule="evenodd"><defs><style type="text/css">
   
    .fil0 {fill:black;fill-rule:nonzero}
   
  </style></defs><g><polygon class="fil0" points="0,53 0,0 54,0 54,10 10,10 10,53 "/><polygon class="fil0" points="278,53 278,0 224,0 224,10 268,10 268,53 "/><polygon class="fil0" points="0,225 0,278 54,278 54,268 10,268 10,225 "/><polygon class="fil0" points="278,225 278,278 224,278 224,268 268,268 268,225 "/><path class="fil0" d="M103 28l0 77 -76 0 0 -77 76 0zm-10 10l-56 0 0 57 56 0 0 -57z"/><path class="fil0" d="M251 28l0 77 -76 0 0 -77 76 0zm-10 10l-56 0 0 57 56 0 0 -57z"/><path class="fil0" d="M103 173l0 77 -76 0 0 -77 76 0zm-10 10l-56 0 0 57 56 0 0 -57z"/><polygon class="fil0" points="71,155 71,143 61,143 61,155 50,155 50,134 69,134 69,124 37,124 37,115 27,115 27,134 40,134 40,145 27,145 27,155 40,155 40,165 82,165 82,155 "/><polygon class="fil0" points="85,123 74,123 74,113 85,113 "/><polygon class="fil0" points="123,82 113,82 113,72 123,72 "/><polygon class="fil0" points="166,70 156,70 156,60 166,60 "/><polygon class="fil0" points="187,176 176,176 176,166 187,166 "/><polygon class="fil0" points="104,144 115,144 115,134 104,134 104,124 94,124 94,133 82,133 82,157 94,157 94,165 125,165 125,146 114,146 114,155 104,155 "/><path class="fil0" d="M165 144l0 11 9 0 0 10 -16 0 0 13 -45 0 0 -10 33 0 0 -19 -13 0 0 -5c10,0 21,0 32,0z"/><polygon class="fil0" points="176,123 145,123 145,133 124,133 124,123 113,123 113,113 176,113 "/><polygon class="fil0" points="124,68 134,68 134,51 134,34 124,34 113,34 113,51 124,51 "/><polygon class="fil0" points="138,38 149,38 149,56 162,56 162,44 170,44 170,28 138,28 "/><path class="fil0" d="M153 88l-28 0 0 11 18 0 0 11 13 0 0 -11 11 0c0,-9 0,-18 0,-27l-24 0 0 11 10 0 0 5z"/><polygon class="fil0" points="123,111 113,111 113,101 123,101 "/><polygon class="fil0" points="251,121 241,121 241,111 251,111 "/><polygon class="fil0" points="145,250 134,250 134,232 145,232 "/><polygon class="fil0" points="222,250 212,250 212,240 222,240 "/><polygon class="fil0" points="222,237 212,237 212,217 222,217 "/><polygon class="fil0" points="131,207 113,207 113,217 141,217 141,191 131,191 "/><polygon class="fil0" points="123,250 113,250 113,232 123,232 "/><polygon class="fil0" points="123,204 113,204 113,181 123,181 "/><polygon class="fil0" points="176,229 161,229 161,219 129,219 129,229 152,229 152,239 164,239 164,250 210,250 210,239 197,239 197,229 186,229 186,239 176,239 "/><polygon class="fil0" points="209,215 197,215 197,226 186,226 186,205 209,205 "/><polygon class="fil0" points="164,178 174,178 174,198 184,198 184,208 174,208 174,219 164,219 164,208 153,208 153,198 164,198 "/><polygon class="fil0" points="222,178 212,178 212,165 188,165 188,155 196,155 196,139 206,139 206,155 222,155 "/><polygon class="fil0" points="228,120 199,120 199,130 188,130 188,117 188,117 188,110 228,110 "/><polygon class="fil0" points="216,135 216,144 238,144 238,135 251,135 251,125 208,125 208,135 "/><polygon class="fil0" points="249,175 228,175 228,165 249,165 "/><polygon class="fil0" points="196,190 185,190 185,200 206,200 206,178 196,178 "/><polygon class="fil0" points="239,207 233,207 233,215 222,215 222,207 217,207 217,185 239,185 "/><polygon class="fil0" points="251,202 241,202 241,192 251,192 "/><path class="fil0" d="M228 250c8,0 15,0 23,0l0 -19 -10 0 0 9 -13 0 0 10z"/><polygon class="fil0" points="251,228 241,228 241,218 251,218 "/><polygon class="fil0" points="82,82 48,82 48,50 82,50 "/><polygon class="fil0" points="230,82 196,82 196,50 230,50 "/><polygon class="fil0" points="82,228 48,228 48,196 82,196 "/><polygon class="fil0" points="123,230 113,230 113,220 123,220 "/><polygon class="fil0" points="159,193 148,193 148,183 159,183 "/><polygon class="fil0" points="171,138 160,138 160,128 171,128 "/><polygon class="fil0" points="186,149 175,149 175,139 186,139 "/><polygon class="fil0" points="251,159 241,159 241,149 251,149 "/></g><text x="0" y="293" fill="#000000" font-size="5px" font-weight="bold" font-family="'Helvetica Neue', Helvetica, Arial-Unicode, Arial, Sans-serif">Created by FayraLovers</text><text x="0" y="298" fill="#000000" font-size="5px" font-weight="bold" font-family="'Helvetica Neue', Helvetica, Arial-Unicode, Arial, Sans-serif">from the Noun Project</text></svg>